<mxfile host="app.diagrams.net" agent="Mozilla/5.0 (Windows NT 10.0; Win64; x64) AppleWebKit/537.36 (KHTML, like Gecko) Chrome/130.0.0.0 Safari/537.36 Edg/130.0.0.0" version="24.8.3">
  <diagram name="Page-1" id="pdp4yr2ejBUG0nBQq4_O">
    <mxGraphModel dx="1426" dy="791" grid="0" gridSize="10" guides="1" tooltips="1" connect="1" arrows="1" fold="1" page="0" pageScale="1" pageWidth="850" pageHeight="1100" background="#000000" math="0" shadow="0">
      <root>
        <mxCell id="0" />
        <mxCell id="1" parent="0" />
        <mxCell id="6U4WXu7tcAF7gXOSeCQJ-1" value="" style="rounded=0;whiteSpace=wrap;html=1;fillColor=#000000;strokeColor=#FFFFFF;" vertex="1" parent="1">
          <mxGeometry x="629" y="106" width="120" height="60" as="geometry" />
        </mxCell>
        <mxCell id="6U4WXu7tcAF7gXOSeCQJ-2" value="" style="endArrow=classic;html=1;rounded=0;strokeColor=#FFFFFF;" edge="1" parent="1">
          <mxGeometry width="50" height="50" relative="1" as="geometry">
            <mxPoint x="68" y="237" as="sourcePoint" />
            <mxPoint x="203" y="237" as="targetPoint" />
          </mxGeometry>
        </mxCell>
        <mxCell id="6U4WXu7tcAF7gXOSeCQJ-3" value="Con" style="text;html=1;align=center;verticalAlign=middle;whiteSpace=wrap;rounded=0;" vertex="1" parent="1">
          <mxGeometry x="103" y="206" width="60" height="30" as="geometry" />
        </mxCell>
        <mxCell id="6U4WXu7tcAF7gXOSeCQJ-4" value="" style="endArrow=none;dashed=1;html=1;rounded=0;strokeColor=#FFFFFF;" edge="1" parent="1">
          <mxGeometry width="50" height="50" relative="1" as="geometry">
            <mxPoint x="202" y="655" as="sourcePoint" />
            <mxPoint x="202" y="176" as="targetPoint" />
          </mxGeometry>
        </mxCell>
        <mxCell id="6U4WXu7tcAF7gXOSeCQJ-5" value="" style="rounded=0;whiteSpace=wrap;html=1;fillColor=#000000;strokeColor=#FFFFFF;" vertex="1" parent="1">
          <mxGeometry x="143" y="112" width="120" height="60" as="geometry" />
        </mxCell>
        <mxCell id="6U4WXu7tcAF7gXOSeCQJ-6" value="&lt;font color=&quot;#ffffff&quot;&gt;&lt;u&gt;:System&lt;/u&gt;&lt;/font&gt;" style="text;html=1;align=center;verticalAlign=middle;whiteSpace=wrap;rounded=0;" vertex="1" parent="1">
          <mxGeometry x="173" y="127" width="60" height="30" as="geometry" />
        </mxCell>
        <mxCell id="6U4WXu7tcAF7gXOSeCQJ-7" value="&lt;font color=&quot;#ffffff&quot;&gt;DeleteUser(id)&lt;/font&gt;" style="text;html=1;align=center;verticalAlign=middle;whiteSpace=wrap;rounded=0;" vertex="1" parent="1">
          <mxGeometry x="45" y="206" width="140" height="30" as="geometry" />
        </mxCell>
        <mxCell id="6U4WXu7tcAF7gXOSeCQJ-8" value="" style="endArrow=classic;html=1;rounded=0;strokeColor=#FFFFFF;" edge="1" parent="1">
          <mxGeometry width="50" height="50" relative="1" as="geometry">
            <mxPoint x="200" y="282" as="sourcePoint" />
            <mxPoint x="374" y="282" as="targetPoint" />
          </mxGeometry>
        </mxCell>
        <mxCell id="6U4WXu7tcAF7gXOSeCQJ-9" value="" style="endArrow=none;dashed=1;html=1;rounded=0;strokeColor=#FFFFFF;" edge="1" parent="1">
          <mxGeometry width="50" height="50" relative="1" as="geometry">
            <mxPoint x="371" y="658" as="sourcePoint" />
            <mxPoint x="371" y="176" as="targetPoint" />
          </mxGeometry>
        </mxCell>
        <mxCell id="6U4WXu7tcAF7gXOSeCQJ-10" value="" style="rounded=0;whiteSpace=wrap;html=1;fillColor=#000000;strokeColor=#FFFFFF;" vertex="1" parent="1">
          <mxGeometry x="312" y="112" width="120" height="60" as="geometry" />
        </mxCell>
        <mxCell id="6U4WXu7tcAF7gXOSeCQJ-11" value="&lt;font color=&quot;#ffffff&quot;&gt;&lt;u&gt;:Users&lt;/u&gt;&lt;/font&gt;" style="text;html=1;align=center;verticalAlign=middle;whiteSpace=wrap;rounded=0;" vertex="1" parent="1">
          <mxGeometry x="342" y="127" width="60" height="30" as="geometry" />
        </mxCell>
        <mxCell id="6U4WXu7tcAF7gXOSeCQJ-12" value="&lt;font color=&quot;#ffffff&quot;&gt;DeleteUser(id)&lt;/font&gt;" style="text;html=1;align=center;verticalAlign=middle;whiteSpace=wrap;rounded=0;" vertex="1" parent="1">
          <mxGeometry x="219" y="251" width="135" height="30" as="geometry" />
        </mxCell>
        <mxCell id="6U4WXu7tcAF7gXOSeCQJ-21" value="" style="endArrow=none;dashed=1;html=1;rounded=0;strokeColor=#FFFFFF;" edge="1" parent="1">
          <mxGeometry width="50" height="50" relative="1" as="geometry">
            <mxPoint x="680" y="664" as="sourcePoint" />
            <mxPoint x="680" y="178" as="targetPoint" />
          </mxGeometry>
        </mxCell>
        <mxCell id="6U4WXu7tcAF7gXOSeCQJ-22" value="" style="rounded=0;whiteSpace=wrap;html=1;fillColor=#000000;strokeColor=#FFFFFF;" vertex="1" parent="1">
          <mxGeometry x="621" y="114" width="120" height="60" as="geometry" />
        </mxCell>
        <mxCell id="6U4WXu7tcAF7gXOSeCQJ-23" value="&lt;font color=&quot;#ffffff&quot;&gt;&lt;u&gt;:Users&lt;/u&gt;&lt;/font&gt;" style="text;html=1;align=center;verticalAlign=middle;whiteSpace=wrap;rounded=0;" vertex="1" parent="1">
          <mxGeometry x="651" y="129" width="60" height="30" as="geometry" />
        </mxCell>
        <mxCell id="6U4WXu7tcAF7gXOSeCQJ-25" value="" style="endArrow=classic;html=1;rounded=0;strokeColor=#FFFFFF;dashed=1;dashPattern=8 8;" edge="1" parent="1">
          <mxGeometry width="50" height="50" relative="1" as="geometry">
            <mxPoint x="678" y="412" as="sourcePoint" />
            <mxPoint x="202" y="410" as="targetPoint" />
          </mxGeometry>
        </mxCell>
        <mxCell id="6U4WXu7tcAF7gXOSeCQJ-26" value="&lt;font color=&quot;#ffffff&quot;&gt;Confirmation()&lt;/font&gt;" style="text;html=1;align=center;verticalAlign=middle;whiteSpace=wrap;rounded=0;" vertex="1" parent="1">
          <mxGeometry x="220" y="383" width="135" height="30" as="geometry" />
        </mxCell>
        <mxCell id="6U4WXu7tcAF7gXOSeCQJ-29" value="" style="endArrow=classic;html=1;rounded=0;strokeColor=#FFFFFF;" edge="1" parent="1">
          <mxGeometry width="50" height="50" relative="1" as="geometry">
            <mxPoint x="373" y="299" as="sourcePoint" />
            <mxPoint x="680" y="299" as="targetPoint" />
          </mxGeometry>
        </mxCell>
        <mxCell id="6U4WXu7tcAF7gXOSeCQJ-30" value="&lt;font color=&quot;#ffffff&quot;&gt;DeleteUser(id)&lt;/font&gt;" style="text;html=1;align=center;verticalAlign=middle;whiteSpace=wrap;rounded=0;" vertex="1" parent="1">
          <mxGeometry x="392" y="268" width="135" height="30" as="geometry" />
        </mxCell>
      </root>
    </mxGraphModel>
  </diagram>
</mxfile>
